<svg width="512" height="512" viewBox="0 0 512 512" fill="none" xmlns="http://www.w3.org/2000/svg">
<rect width="512" height="512.001" rx="25.2767" fill="#FFFDFA"/>
<g filter="url(#filter0_d_203_10)">
<ellipse cx="56.3609" cy="56.3609" rx="56.3609" ry="56.3609" transform="matrix(-1 0 0 1 305.393 379.21)" fill="#FF660A"/>
</g>
<g filter="url(#filter1_d_203_10)">
<path fill-rule="evenodd" clip-rule="evenodd" d="M333.244 472.996C332.776 474.012 333.865 475.071 334.844 474.529C376.065 451.727 408.157 409.758 416.286 368.375C428.295 307.239 411.947 251.125 356.058 202.433C288.169 143.286 277.751 98.9951 277.323 24.4148C277.309 21.9764 274.854 20.2928 272.63 21.294C230.007 40.4852 181.756 91.2932 194.113 161.312C197.533 180.695 206.993 194.412 215.45 206.676C226.105 222.126 235.169 235.27 228.566 254.529C220.732 277.377 194.478 289.415 177.506 278.414C150.096 260.649 152.247 227.99 163.968 195.426C164.325 194.435 163.301 193.515 162.385 194.036C124.812 215.441 78.6412 281.108 94.0444 368.375C109.808 422.83 133.565 450.01 158.836 462.878C159.739 463.338 160.731 462.464 160.434 461.494C157.796 452.893 156.377 443.758 156.377 434.293C156.377 383.12 197.861 341.636 249.033 341.636C300.206 341.636 341.69 383.12 341.69 434.293C341.69 448.109 338.666 461.218 333.244 472.996Z" fill="url(#paint0_linear_203_10)"/>
</g>
<defs>
<filter id="filter0_d_203_10" x="191.177" y="377.716" width="115.711" height="115.711" filterUnits="userSpaceOnUse" color-interpolation-filters="sRGB">
<feFlood flood-opacity="0" result="BackgroundImageFix"/>
<feColorMatrix in="SourceAlpha" type="matrix" values="0 0 0 0 0 0 0 0 0 0 0 0 0 0 0 0 0 0 127 0" result="hardAlpha"/>
<feOffset/>
<feGaussianBlur stdDeviation="0.747255"/>
<feComposite in2="hardAlpha" operator="out"/>
<feColorMatrix type="matrix" values="0 0 0 0 1 0 0 0 0 0.42 0 0 0 0 0 0 0 0 0.7 0"/>
<feBlend mode="multiply" in2="BackgroundImageFix" result="effect1_dropShadow_203_10"/>
<feBlend mode="normal" in="SourceGraphic" in2="effect1_dropShadow_203_10" result="shape"/>
</filter>
<filter id="filter1_d_203_10" x="89.5055" y="19.5055" width="331.989" height="456.665" filterUnits="userSpaceOnUse" color-interpolation-filters="sRGB">
<feFlood flood-opacity="0" result="BackgroundImageFix"/>
<feColorMatrix in="SourceAlpha" type="matrix" values="0 0 0 0 0 0 0 0 0 0 0 0 0 0 0 0 0 0 127 0" result="hardAlpha"/>
<feOffset/>
<feGaussianBlur stdDeviation="0.747255"/>
<feComposite in2="hardAlpha" operator="out"/>
<feColorMatrix type="matrix" values="0 0 0 0 1 0 0 0 0 0.42 0 0 0 0 0 0 0 0 0.7 0"/>
<feBlend mode="multiply" in2="BackgroundImageFix" result="effect1_dropShadow_203_10"/>
<feBlend mode="normal" in="SourceGraphic" in2="effect1_dropShadow_203_10" result="shape"/>
</filter>
<linearGradient id="paint0_linear_203_10" x1="255.5" y1="21" x2="255.5" y2="490.526" gradientUnits="userSpaceOnUse">
<stop offset="0.239583" stop-color="#FFD643"/>
<stop offset="0.65625" stop-color="#FF8B20"/>
<stop offset="1" stop-color="#FF5C00"/>
</linearGradient>
</defs>
</svg>
